<?xml version="1.0" encoding="UTF-8"?><svg id="Layer_1" xmlns="http://www.w3.org/2000/svg" viewBox="0 0 30.84 30.84"><defs><style>.cls-1{fill:#fff;}.cls-2{fill:#0000cb;}</style></defs><polygon class="cls-2" points="15.39 17.04 10.85 30.84 17.22 30.84 15.45 17.03 15.39 17.04"/><path class="cls-2" d="m27.45,0H3.39C1.52,0,0,1.52,0,3.39v24.06c0,1.87,1.52,3.39,3.39,3.39h2.11L2.49,12.31l4.52-.42,1.69,15.04h.06s5.11-15.67,5.11-15.67l4.32-.4,1.91,14.96h.06s4.89-15.59,4.89-15.59l4.52-.42-7.59,21.05h5.48c1.87,0,3.39-1.52,3.39-3.39V3.39c0-1.87-1.52-3.39-3.39-3.39Z"/><polygon class="cls-1" points="25.04 10.21 20.15 25.8 20.1 25.81 18.19 10.85 13.87 11.25 8.75 26.92 8.7 26.92 7.01 11.89 2.49 12.31 5.5 30.84 10.85 30.84 15.39 17.04 15.45 17.03 17.22 30.84 21.97 30.84 29.56 9.79 25.04 10.21"/></svg>