<?xml version="1.0" encoding="UTF-8"?><svg id="Layer_1" xmlns="http://www.w3.org/2000/svg" viewBox="0 0 139.56 27.25"><defs><style>.cls-1{fill:#fff;}.cls-2{fill:#0000cb;}</style></defs><rect class="cls-2" width="139.56" height="27.25"/><g><g><path class="cls-1" d="m33.42,7.83l1.73,18.6-4.09.38-1.73-18.6,4.09-.38Z"/><path class="cls-1" d="m41.11,7.12l.72,7.71,6.55-8.39,5.11-.47-6.59,8.02,9.02,10.51-5.13.48-6.38-7.84-2.12,2.59.56,5.99-4.09.38-1.73-18.6,4.09-.38Z"/><path class="cls-1" d="m59.92,5.37l1.73,18.6-4.09.38-1.73-18.6,4.09-.38Z"/><path class="cls-1" d="m77.04,22.54l-1.7-13.24h-.05s-4.55,13.83-4.55,13.83l-4.12.38-3-18.48,4.09-.38,1.53,13.6h.05s4.62-14.18,4.62-14.18l3.91-.36,1.73,13.53h.05s4.42-14.11,4.42-14.11l4.09-.38-7,19.41-4.06.38Z"/><path class="cls-1" d="m96.34,1.99l8.68,17.96-4.25.39-1.79-4.01-6.96.65-1.07,4.28-4.12.38,5.31-19.25,4.19-.39Zm1.29,11.39l-2.98-6.61h-.05s-1.79,7.06-1.79,7.06l4.82-.45Z"/><path class="cls-1" d="m109,.81l1.41,15.16,9.07-.84.32,3.44-13.16,1.22-1.73-18.6,4.09-.38Z"/><polygon class="cls-1" points="134.93 13.7 125.86 14.54 124.51 0 120.38 0 122.09 18.36 135.24 17.14 134.93 13.7"/></g><polygon class="cls-1" points="25.18 8.59 20.76 22.69 20.7 22.69 18.98 9.16 15.07 9.53 10.44 23.7 10.39 23.71 8.87 10.1 4.78 10.48 7.5 27.25 12.34 27.25 16.45 14.76 16.5 14.76 18.11 27.25 22.4 27.25 29.27 8.21 25.18 8.59"/></g></svg>